<?xml version="1.0" standalone="no"?>
<!DOCTYPE svg PUBLIC "-//W3C//DTD SVG 20010904//EN"
 "http://www.w3.org/TR/2001/REC-SVG-20010904/DTD/svg10.dtd">
<svg version="1.0" xmlns="http://www.w3.org/2000/svg"
 width="240.000000pt" height="240.000000pt" viewBox="0 0 240.000000 240.000000"
 preserveAspectRatio="xMidYMid meet">
<metadata>
Created by potrace 1.14, written by Peter Selinger 2001-2017
</metadata>
<g transform="translate(0.000000,240.000000) scale(0.100000,-0.100000)"
fill="#000000" stroke="none">
<path d="M1255 2094 c-27 -9 -70 -15 -95 -14 -136 4 -261 3 -305 -3 -133 -20
-284 -81 -390 -159 -33 -24 -78 -54 -100 -67 -138 -82 -227 -232 -219 -370 2
-43 -3 -63 -28 -111 -37 -71 -45 -172 -21 -254 41 -137 193 -266 332 -283 44
-5 50 -9 65 -44 40 -90 140 -169 231 -184 22 -3 51 -8 65 -11 48 -9 141 -4
225 12 35 7 153 6 177 -1 13 -4 42 -27 66 -51 52 -53 120 -101 165 -116 17 -6
34 -14 37 -18 3 -4 43 -17 90 -30 118 -32 236 -31 305 1 71 33 171 137 206
214 26 59 31 63 74 74 94 24 164 129 180 271 9 75 9 65 1 152 -7 90 -23 152
-57 223 -16 33 -31 75 -34 93 -3 18 -12 49 -20 70 -8 20 -16 46 -18 57 -2 11
-11 37 -20 59 -9 21 -17 40 -17 43 0 8 -83 128 -101 146 -11 10 -38 26 -62 36
-26 11 -53 34 -70 58 -48 69 -142 123 -312 179 -133 44 -266 55 -350 28z"/>
</g>
</svg>
