<?xml version="1.0" standalone="no"?>
<!DOCTYPE svg PUBLIC "-//W3C//DTD SVG 20010904//EN"
 "http://www.w3.org/TR/2001/REC-SVG-20010904/DTD/svg10.dtd">
<svg version="1.0" xmlns="http://www.w3.org/2000/svg"
 width="96.000000pt" height="96.000000pt" viewBox="0 0 96.000000 96.000000"
 preserveAspectRatio="xMidYMid meet">
<metadata>
Created by potrace 1.11, written by Peter Selinger 2001-2013
</metadata>
<g transform="translate(0.000000,96.000000) scale(0.100000,-0.100000)"
fill="#000000" stroke="none">
<path d="M445 911 c-51 -22 -56 -93 -10 -135 15 -14 25 -34 25 -50 0 -22 -4
-26 -28 -26 -43 0 -136 -35 -186 -70 -25 -17 -63 -56 -86 -87 l-40 -56 0 35
c0 46 -21 65 -55 50 l-25 -12 0 -158 c0 -163 4 -182 42 -182 13 0 18 -8 18
-29 0 -53 34 -70 195 -96 100 -17 334 -12 429 9 94 21 130 44 134 84 2 23 8
32 21 32 37 0 42 22 39 185 -3 138 -5 159 -20 169 -29 18 -52 -5 -58 -55 l-5
-44 -13 32 c-36 83 -166 173 -273 188 -44 6 -49 10 -49 32 0 14 13 38 31 56
26 26 30 36 25 66 -3 19 -11 40 -18 48 -18 17 -68 25 -93 14z"/>
</g>
</svg>
